<svg width="100%" height="100%" viewBox="0 0 400 400" fill="none" xmlns="http://www.w3.org/2000/svg">
  <rect width="400" height="400" fill="#f7e7c5"/>
  <!-- Bar ambiance -->
  <ellipse cx="200" cy="380" rx="180" ry="20" fill="#c2a477"/>
  <rect x="40" y="300" width="320" height="40" rx="10" fill="#a67c52"/>
  <ellipse cx="200" cy="320" rx="150" ry="10" fill="#d2b48c"/>
  <!-- Table -->
  <rect x="120" y="340" width="160" height="18" rx="6" fill="#b5651d"/>
  <!-- Chicken punk humanoid -->
  <!-- Legs with boots -->
  <rect x="170" y="270" width="16" height="60" rx="8" fill="#e2b97f"/>
  <rect x="214" y="270" width="16" height="60" rx="8" fill="#e2b97f"/>
  <rect x="170" y="325" width="16" height="18" rx="6" fill="#222"/>
  <rect x="214" y="325" width="16" height="18" rx="6" fill="#222"/>
  <!-- Body -->
  <ellipse cx="200" cy="210" rx="55" ry="70" fill="#fffbe6" stroke="#e2b97f" stroke-width="4"/>
  <!-- Arm with tattoo -->
  <rect x="140" y="200" width="16" height="50" rx="8" fill="#fffbe6" stroke="#e2b97f" stroke-width="3"/>
  <circle cx="148" cy="220" r="4" fill="#e63946"/>
  <!-- Head -->
  <ellipse cx="200" cy="120" rx="38" ry="42" fill="#fffbe6" stroke="#e2b97f" stroke-width="4"/>
  <!-- Mohawk punk -->
  <polygon points="200,60 210,90 205,90 215,120 195,90 190,90 200,60" fill="#e63946" stroke="#b8002e" stroke-width="3"/>
  <rect x="195" y="65" width="10" height="18" rx="5" fill="#e63946"/>
  <!-- Eyes big and smiling -->
  <ellipse cx="190" cy="120" rx="7" ry="7" fill="#222"/>
  <ellipse cx="210" cy="120" rx="7" ry="7" fill="#222"/>
  <ellipse cx="190" cy="120" rx="2" ry="2" fill="#fff"/>
  <ellipse cx="210" cy="120" rx="2" ry="2" fill="#fff"/>
  <!-- Beak -->
  <polygon points="230,135 220,125 240,130" fill="#f7b731" stroke="#e2b97f" stroke-width="2"/>
  <!-- Big smiling mouth -->
  <path d="M185 140 Q200 155 215 140 Q200 160 185 140" fill="#e63946"/>
  <!-- Guitar -->
  <rect x="250" y="200" width="80" height="16" rx="8" fill="#222" stroke="#444" stroke-width="2"/>
  <ellipse cx="330" cy="208" rx="14" ry="14" fill="#b5651d" stroke="#7a3f0e" stroke-width="3"/>
  <rect x="250" y="205" width="50" height="6" rx="3" fill="#b5651d"/>
  <!-- Chicken hand on guitar -->
  <ellipse cx="270" cy="210" rx="8" ry="6" fill="#fffbe6" stroke="#e2b97f" stroke-width="2"/>
  <!-- Vest -->
  <rect x="170" y="170" width="60" height="40" rx="20" fill="#222" opacity="0.3"/>
  <!-- Bar details: bottles -->
  <rect x="60" y="310" width="10" height="30" rx="3" fill="#388e3c"/>
  <rect x="80" y="315" width="8" height="20" rx="3" fill="#2196f3"/>
  <rect x="320" y="310" width="10" height="30" rx="3" fill="#388e3c"/>
  <rect x="340" y="315" width="8" height="20" rx="3" fill="#2196f3"/>
  <!-- Cactus -->
  <rect x="60" y="220" width="12" height="50" rx="6" fill="#4caf50"/>
  <ellipse cx="66" cy="220" rx="12" ry="8" fill="#388e3c"/>
  <!-- Fun earring -->
  <circle cx="232" cy="140" r="4" fill="#e63946"/>
</svg>
