<svg width="100%" height="100%" viewBox="0 0 400 400" fill="none" xmlns="http://www.w3.org/2000/svg">
  <rect width="400" height="400" fill="#f7e7c5"/>
  <!-- Bar ambiance -->
  <ellipse cx="200" cy="380" rx="180" ry="20" fill="#c2a477"/>
  <rect x="40" y="300" width="320" height="40" rx="10" fill="#a67c52"/>
  <ellipse cx="200" cy="320" rx="150" ry="10" fill="#d2b48c"/>
  <!-- Chicken body -->
  <ellipse cx="200" cy="220" rx="60" ry="80" fill="#fffbe6" stroke="#e2b97f" stroke-width="4"/>
  <!-- Head -->
  <ellipse cx="200" cy="120" rx="40" ry="45" fill="#fffbe6" stroke="#e2b97f" stroke-width="4"/>
  <!-- Mohawk -->
  <polygon points="200,60 210,90 205,90 215,120 195,90 190,90 200,60" fill="#e63946" stroke="#b8002e" stroke-width="3"/>
  <!-- Eyes focused -->
  <ellipse cx="190" cy="120" rx="6" ry="6" fill="#222"/>
  <ellipse cx="210" cy="120" rx="6" ry="6" fill="#222"/>
  <!-- Beak -->
  <polygon points="230,135 220,125 240,130" fill="#f7b731" stroke="#e2b97f" stroke-width="2"/>
  <!-- Drums -->
  <ellipse cx="160" cy="270" rx="30" ry="12" fill="#b5651d" stroke="#7a3f0e" stroke-width="3"/>
  <ellipse cx="240" cy="270" rx="30" ry="12" fill="#b5651d" stroke="#7a3f0e" stroke-width="3"/>
  <rect x="150" y="250" width="20" height="40" rx="5" fill="#d2b48c"/>
  <rect x="230" y="250" width="20" height="40" rx="5" fill="#d2b48c"/>
  <!-- Drumsticks -->
  <rect x="180" y="200" width="6" height="40" rx="3" fill="#e2b97f"/>
  <rect x="214" y="200" width="6" height="40" rx="3" fill="#e2b97f"/>
  <!-- Chicken hands on drumsticks -->
  <ellipse cx="183" cy="200" rx="6" ry="4" fill="#fffbe6" stroke="#e2b97f" stroke-width="2"/>
  <ellipse cx="217" cy="200" rx="6" ry="4" fill="#fffbe6" stroke="#e2b97f" stroke-width="2"/>
  <!-- Legs -->
  <rect x="185" y="300" width="8" height="40" rx="4" fill="#e2b97f"/>
  <rect x="207" y="300" width="8" height="40" rx="4" fill="#e2b97f"/>
  <!-- Bar details -->
  <rect x="60" y="310" width="30" height="10" rx="3" fill="#fffbe6"/>
  <rect x="310" y="310" width="30" height="10" rx="3" fill="#fffbe6"/>
  <!-- Cactus -->
  <rect x="60" y="220" width="12" height="50" rx="6" fill="#4caf50"/>
  <ellipse cx="66" cy="220" rx="12" ry="8" fill="#388e3c"/>
  <!-- Mouth neutral -->
  <ellipse cx="200" cy="145" rx="10" ry="5" fill="#222"/>
</svg>
