<svg width="100%" height="100%" viewBox="0 0 800 600" fill="none" xmlns="http://www.w3.org/2000/svg">
  <rect width="800" height="600" fill="url(#bg)"/>
  <defs>
    <linearGradient id="bg" x1="0" y1="0" x2="800" y2="600" gradientUnits="userSpaceOnUse">
      <stop stop-color="#a7c7e7"/>
      <stop offset="1" stop-color="#d1b3ff"/>
    </linearGradient>
  </defs>
  <!-- Corps du poulet -->
  <ellipse cx="400" cy="400" rx="120" ry="80" fill="#fffbe6" stroke="#e2b97f" stroke-width="6"/>
  <!-- Tête du poulet -->
  <ellipse cx="340" cy="320" rx="50" ry="45" fill="#fffbe6" stroke="#e2b97f" stroke-width="6"/>
  <!-- Crête punk -->
  <polygon points="340,250 355,285 345,285 360,320 335,285 325,285 340,250" fill="#e63946" stroke="#b8002e" stroke-width="4"/>
  <!-- Oeil -->
  <ellipse cx="355" cy="320" rx="7" ry="7" fill="#222"/>
  <ellipse cx="355" cy="320" rx="2" ry="2" fill="#fff"/>
  <!-- Bec -->
  <polygon points="375,335 370,325 385,330" fill="#f7b731" stroke="#e2b97f" stroke-width="2"/>
  <!-- Aile -->
  <ellipse cx="440" cy="400" rx="40" ry="25" fill="#ffe4b5" stroke="#e2b97f" stroke-width="4"/>
  <!-- Guitare -->
  <rect x="470" y="410" width="90" height="18" rx="9" fill="#222" stroke="#444" stroke-width="3"/>
  <ellipse cx="560" cy="419" rx="18" ry="18" fill="#b5651d" stroke="#7a3f0e" stroke-width="4"/>
  <rect x="470" y="415" width="60" height="8" rx="4" fill="#b5651d"/>
  <!-- Main du poulet sur guitare -->
  <ellipse cx="500" cy="420" rx="10" ry="8" fill="#fffbe6" stroke="#e2b97f" stroke-width="3"/>
  <!-- Pattes -->
  <rect x="390" y="480" width="10" height="40" rx="5" fill="#e2b97f"/>
  <rect x="420" y="480" width="10" height="40" rx="5" fill="#e2b97f"/>
  <!-- Détails punk -->
  <rect x="330" y="270" width="8" height="18" rx="4" fill="#e63946"/>
  <rect x="350" y="260" width="8" height="18" rx="4" fill="#e63946"/>
  <rect x="340" y="255" width="8" height="18" rx="4" fill="#e63946"/>
  <!-- Notes de musique -->
  <g>
    <path d="M600 200 Q610 190 620 200 T640 200" stroke="#222" stroke-width="3" fill="none"/>
    <ellipse cx="610" cy="190" rx="5" ry="8" fill="#222"/>
    <ellipse cx="630" cy="200" rx="5" ry="8" fill="#222"/>
  </g>
</svg>
